<svg xmlns="http://www.w3.org/2000/svg" width="175" height="42" viewBox="0 0 175 42"><g fill="none" fill-rule="evenodd"><g fill="#FFF"><g><g><g><path d="M25.541 28.408c.495 0 .431-.28.431-.806v-2.554c0-.527-.048-.694.252-.694 1.05 0 1.337-.098 1.337-1.032v-9.489c0-2.584-1.825-2.155-2.337-3.1-.732-1.277 1.365-1.277.602-4.042-.194-.628-.684-1.015-1.631-1.015-.948 0-1.44.387-1.632 1.015-.76 2.765 1.338 2.765.607 4.042-.517.945-2.338.516-2.338 3.1v9.489c0 .934.282 1.032 1.336 1.032.295 0 .25.167.25.694v2.554c0 .525-.064.806.433.806h2.69M17.236 7.827c-.933.993-2.407 3.312-1.445 5.237 1.957.753 1.807-6.2 4.247-6.081 1.204 1.115-.361 4.396-.846 5.838-.601 1.781-1.081 5.512-2.226 7.316-.96 1.507-.24 6.234-.543 7.86-.81.812-3.01.238-3.942.086 0-1.864-.244-3.339-.541-6.32-.03-.6-.663-9.812-.151-10.927 1.054-2.32 6.802-6.742 7.588-7.587C20.066 2.498 22.504 0 23.438 0c.66.452.27 1.505.121 1.926-.933 2.319-4.968 4.606-6.323 5.901M31.263 7.827c.9.993 2.378 3.312 1.443 5.237-1.986.753-1.834-6.2-4.275-6.081-1.17 1.115.392 4.396.874 5.838.603 1.781 1.086 5.512 2.225 7.316.937 1.507.24 6.234.512 7.86.845.812 3.01.238 3.974.086 0-1.864.212-3.339.512-6.32.06-.6.692-9.812.181-10.927-1.053-2.32-6.801-6.742-7.584-7.587C28.405 2.498 25.993 0 25.06 0c-.688.452-.268 1.505-.118 1.926.934 2.319 4.967 4.606 6.322 5.901M8.875 4.705c-.512.484-1.66.815-2.443 1.867-.301-.57.481-1.956 1.417-2.77.692-.577 2.052-1.51 2.44-1.6.303.694-.781 1.75-1.414 2.503" transform="translate(-150 -2845) translate(0 2446) translate(0 270) translate(150 129)"></path><path d="M7.276 8.477c-.873.81-1.807 1.145-3.016 2.624-.512-1.782-.39-3.35-.152-4.407.425-1.385 1.117-2.925 2.295-3.407-.242.785-.637 1.87-.726 3.35-.51 2.02-.815 2.08-.693 2.352.118 0 .782-1.056 1.598-1.87.967-.964 2.17-1.177 2.954-1.75-.118.392-.81 1.628-2.26 3.108" transform="translate(-150 -2845) translate(0 2446) translate(0 270) translate(150 129)"></path><path d="M3.026 16.831c-1.177-2.112-1.298-3.65-1.39-5.432.062-1.234.665-4.1 1.569-4.52-.272 2.591.425 2.832.15 4.974 0 .12-.302 2.353-.302 2.473.362-.06.032-2.052 4.16-4.916-.9 1.568-.481 2.05-2.11 4.134-1.898 1.87-2.17 3.706-2.077 3.287" transform="translate(-150 -2845) translate(0 2446) translate(0 270) translate(150 129)"></path><path d="M4.684 18.823c-.877 1.266-.726 1.899-.936 2.5C1.664 20.12-.685 15.325.187 12.941c.545 1.808 1.298 2.2 1.84 3.709.937 2.262.788 2.954 1.388 3.469-.121-1.177.27-2.565.667-3.59.573-.875 1.02-2.021 1.447-2.414.45 1.662.118 3.018-.845 4.708" transform="translate(-150 -2845) translate(0 2446) translate(0 270) translate(150 129)"></path><path d="M6.554 22.924c0 1.84-.334 2.654-.484 4.01C2.48 25.76.61 21.658.61 19.637c1.088 2.472 2.685 2.441 4.77 5.941.179-1.328-.366-.333-.425-2.835.06-2.624.604-2.716.692-4.343.666.723.907 3.62.907 4.524" transform="translate(-150 -2845) translate(0 2446) translate(0 270) translate(150 129)"></path><path d="M9.536 28.14c.274 1.357.393 2.957.606 4.134-2.05-.754-2.566-.181-5.005-1.72-1.119-.605-3.109-3.136-2.984-4.949 2.41 2.686 2.832 2.387 4.009 3.38 1.085.876 1.957 2.173 2.746 1.993.057-.725-1.781-2.294-1.542-6.817.483.51 1.81 2.561 2.17 3.979" transform="translate(-150 -2845) translate(0 2446) translate(0 270) translate(150 129)"></path><path d="M13.61 31.52c.631.903.483 1.296 2.113 3.165-.396.181-2.715.785-4.258.847-1.02 0-4.641-.966-5.846-3.44 2.08 1.116 2.111.845 4.884 1.449 1.992.452 3.408 1.084 3.952 1.025-.12-.271-1.656-.906-2.713-2.232-1.058-1.418-.816-3.016-1.754-4.194.636-.181 3.108 2.717 3.621 3.38M39.454 4.705c.482.484 1.66.815 2.413 1.867.332-.57-.48-1.956-1.417-2.77-.659-.577-2.02-1.51-2.445-1.6-.3.694.785 1.75 1.449 2.503" transform="translate(-150 -2845) translate(0 2446) translate(0 270) translate(150 129)"></path><path d="M41.054 8.477c.844.81 1.78 1.145 2.983 2.624.515-1.782.393-3.35.156-4.407-.392-1.385-1.118-2.925-2.295-3.407.274.785.634 1.87.725 3.35.511 2.02.814 2.08.693 2.352-.12 0-.784-1.056-1.6-1.87-.932-.964-2.143-1.177-2.954-1.75.122.392.845 1.628 2.292 3.108" transform="translate(-150 -2845) translate(0 2446) translate(0 270) translate(150 129)"></path><path d="M45.277 16.831c1.206-2.112 1.293-3.65 1.388-5.432-.064-1.234-.667-4.1-1.54-4.52.241 2.591-.453 2.832-.151 4.974 0 .12.273 2.353.273 2.473-.333-.06-.033-2.052-4.134-4.916.876 1.568.452 2.05 2.083 4.134 1.93 1.87 2.17 3.706 2.08 3.287" transform="translate(-150 -2845) translate(0 2446) translate(0 270) translate(150 129)"></path><path d="M43.645 18.823c.848 1.266.696 1.899.907 2.5 2.082-1.204 4.463-5.998 3.558-8.382-.513 1.808-1.296 2.2-1.808 3.709-.965 2.262-.817 2.954-1.388 3.469.12-1.177-.303-2.565-.694-3.59-.543-.875-1.024-2.021-1.45-2.414-.42 1.662-.12 3.018.875 4.708" transform="translate(-150 -2845) translate(0 2446) translate(0 270) translate(150 129)"></path><path d="M41.747 22.924c0 1.84.36 2.654.513 4.01 3.561-1.174 5.46-5.276 5.46-7.297-1.119 2.472-2.687 2.441-4.796 5.941-.182-1.328.359-.333.42-2.835-.061-2.624-.602-2.716-.695-4.343-.659.723-.902 3.62-.902 4.524" transform="translate(-150 -2845) translate(0 2446) translate(0 270) translate(150 129)"></path><path d="M38.763 28.14c-.273 1.357-.363 2.957-.573 4.134 2.02-.754 2.533-.181 4.973-1.72 1.117-.605 3.14-3.136 3.018-4.949-2.414 2.686-2.865 2.387-4.009 3.38-1.088.876-1.993 2.173-2.778 1.993-.06-.725 1.78-2.294 1.57-6.817-.514.51-1.842 2.561-2.201 3.979" transform="translate(-150 -2845) translate(0 2446) translate(0 270) translate(150 129)"></path><path d="M34.689 31.52c-.605.903-.455 1.296-2.11 3.165.42.181 2.714.785 4.283.847.994 0 4.614-.966 5.817-3.44-2.076 1.116-2.11.845-4.882 1.449-1.992.452-3.379 1.084-3.95 1.025.119-.271 1.685-.906 2.715-2.232 1.053-1.418.812-3.016 1.776-4.194-.66-.181-3.134 2.717-3.65 3.38M19.008 40.024l-.604-.302s3.835-4.674 10.406-4.312c6.574.362 6.123 1.902 9.649 1.658.393-.03-.3.485-.3.485s-3.439 1.324-7.691-.123c-4.223-1.447-6.968-2.323-11.46 2.594" transform="translate(-150 -2845) translate(0 2446) translate(0 270) translate(150 129)"></path><path d="M29.41 40.024l.608-.302s-3.802-4.674-10.376-4.312c-6.604.362-6.152 1.902-9.68 1.658-.393-.03.3.485.3.485s3.436 1.324 7.69-.123c4.25-1.447 6.998-2.323 11.458 2.594M76.02 19.685c0 6.302-3.404 9.325-10.34 9.325-6.94 0-10.376-3.023-10.376-9.325V5.748h7v12.378c0 2.322 0 5.22 3.406 5.22 3.31 0 3.31-2.898 3.31-5.22V5.748h7v13.937M80.221 5.747L87.379 5.747 93.999 17.902 94.061 17.902 94.061 5.747 100.68 5.747 100.68 28.467 93.871 28.467 86.903 16.058 86.839 16.058 86.839 28.467 80.221 28.467zM104.977 5.747L111.977 5.747 111.977 13.639 118.533 13.639 118.533 5.747 125.533 5.747 125.533 28.467 118.533 28.467 118.533 19.462 111.977 19.462 111.977 28.467 104.977 28.467zM143.449 14.212c-.128-.828-.764-3.34-3.662-3.34-3.277 0-4.326 3.18-4.326 6.235 0 3.054 1.049 6.239 4.326 6.239 2.357 0 3.28-1.656 3.694-3.787h6.873c0 4.581-3.724 9.45-10.374 9.45-7.35 0-11.52-5.187-11.52-11.902 0-7.16 4.52-11.9 11.52-11.9 6.236.03 9.675 3.309 10.277 9.005h-6.808M153.28 28.467h7v-7.922h3.727c2.766 0 2.956 2.26 3.148 4.424.093 1.177.221 2.355.573 3.498h7.001c-.639-1.05-.668-3.753-.765-4.866-.255-2.833-1.43-4.934-3.342-5.666 2.324-.86 3.406-3.34 3.406-5.696 0-4.298-3.439-6.492-7.415-6.492H153.28v22.72zm7-17.311h3.279c2.674 0 3.469.827 3.469 2.26 0 2.035-1.784 2.26-3.087 2.26h-3.661v-4.52zM57.582 33.691L55.3 33.691 55.3 32.283 61.538 32.283 61.538 33.691 59.256 33.691 59.256 39.897 57.582 39.897zM62.06 32.283h1.514v2.868h.03c.386-.618 1.047-.916 1.612-.916 1.61 0 2.015.906 2.015 2.27v3.392h-1.515v-3.115c0-.906-.265-1.354-.969-1.354-.82 0-1.173.459-1.173 1.579v2.89H62.06v-7.614M71.857 36.548c-.138-.768-.469-1.172-1.205-1.172-.959 0-1.237.747-1.257 1.172h2.462zm-2.462.96c.043.96.511 1.396 1.353 1.396.61 0 1.098-.372 1.194-.715h1.333c-.426 1.303-1.333 1.857-2.58 1.857-1.736 0-2.815-1.195-2.815-2.9 0-1.654 1.142-2.91 2.815-2.91 1.877 0 2.783 1.576 2.678 3.271h-3.978zM83.203 37.018c0 2.058-1.215 3.059-3.252 3.059-2.047 0-3.241-.99-3.241-3.059v-4.735h1.674v4.735c0 .831.213 1.652 1.567 1.652 1.194 0 1.578-.523 1.578-1.652v-4.735h1.674v4.735M84.323 32.283L85.986 32.283 89.164 37.391 89.184 37.391 89.184 32.283 90.752 32.283 90.752 39.897 89.078 39.897 85.911 34.8 85.889 34.8 85.889 39.897 84.323 39.897zM94.399 39.897h1.674V36.92h1.673c.843 0 1.153.353 1.27 1.152.084.608.064 1.345.266 1.825h1.674c-.298-.428-.288-1.324-.32-1.803-.053-.768-.287-1.567-1.109-1.78v-.022c.843-.34 1.205-1.013 1.205-1.908 0-1.151-.863-2.1-2.228-2.1h-4.105v7.613zm1.674-6.313h1.833c.746 0 1.152.32 1.152 1.056 0 .768-.406 1.087-1.152 1.087h-1.833v-2.143zM106.969 37.507c.107-1.695-.8-3.272-2.676-3.272-1.674 0-2.814 1.257-2.814 2.91 0 1.706 1.077 2.902 2.814 2.902 1.248 0 2.153-.555 2.58-1.858h-1.332c-.097.343-.587.715-1.194.715-.842 0-1.312-.437-1.354-1.397h3.976zm-3.976-.959c.021-.426.297-1.172 1.257-1.172.736 0 1.067.404 1.206 1.172h-2.463zM107.967 35.396h-.907v-1.013h.907v-.426c0-.97.607-1.674 1.843-1.674.267 0 .545.033.8.043v1.131c-.18-.022-.362-.033-.555-.033-.404 0-.574.17-.574.629v.33h1.044v1.013h-1.044v4.5h-1.514v-4.5M116.166 39.897h-1.44v-.768h-.032c-.384.617-1.045.917-1.684.917-1.61 0-2.015-.908-2.015-2.272v-3.39h1.514v3.112c0 .908.266 1.355.97 1.355.82 0 1.172-.458 1.172-1.578v-2.89h1.515v5.514M122.38 34.383h-1.44v.737h-.02c-.362-.64-.916-.885-1.642-.885-1.546 0-2.367 1.3-2.367 2.728 0 1.515.704 2.774 2.357 2.774.66 0 1.322-.279 1.653-.853h.02v.725c.012.789-.373 1.364-1.214 1.364-.533 0-.992-.192-1.131-.757h-1.503c.073 1.257 1.343 1.771 2.431 1.771 2.537 0 2.857-1.536 2.857-2.443v-5.16m-2.73 4.211c-.927 0-1.225-.863-1.225-1.652 0-.82.372-1.567 1.225-1.567.981 0 1.29.799 1.29 1.694 0 .79-.426 1.525-1.29 1.525M128.63 37.507c.106-1.695-.8-3.272-2.678-3.272-1.673 0-2.815 1.257-2.815 2.91 0 1.706 1.079 2.902 2.815 2.902 1.248 0 2.155-.555 2.58-1.858H127.2c-.097.343-.587.715-1.194.715-.842 0-1.312-.437-1.354-1.397h3.978zm-3.978-.959c.02-.426.298-1.172 1.258-1.172.736 0 1.066.404 1.205 1.172h-2.463zM134.556 37.507c.107-1.695-.8-3.272-2.675-3.272-1.674 0-2.815 1.257-2.815 2.91 0 1.706 1.076 2.902 2.815 2.902 1.247 0 2.153-.555 2.581-1.858h-1.334c-.096.343-.587.715-1.195.715-.842 0-1.31-.437-1.353-1.397h3.976zm-3.976-.959c.022-.426.298-1.172 1.258-1.172.736 0 1.067.404 1.204 1.172h-2.462zM137.765 39.897h1.694l.6-1.696h2.845l.576 1.696h1.739l-2.848-7.614h-1.716l-2.89 7.614zm3.721-5.737h.021l.96 2.793h-1.972l.991-2.793zM150.784 34.383h-1.439v.737h-.022c-.363-.64-.917-.885-1.642-.885-1.546 0-2.368 1.3-2.368 2.728 0 1.515.705 2.774 2.357 2.774.661 0 1.324-.279 1.653-.853h.022v.725c.01.789-.374 1.364-1.216 1.364-.533 0-.991-.192-1.13-.757h-1.505c.076 1.257 1.346 1.771 2.433 1.771 2.536 0 2.857-1.536 2.857-2.443v-5.16m-2.73 4.211c-.927 0-1.226-.863-1.226-1.652 0-.82.373-1.567 1.226-1.567.981 0 1.291.799 1.291 1.694 0 .79-.428 1.525-1.29 1.525M157.031 37.507c.106-1.695-.799-3.272-2.675-3.272-1.675 0-2.815 1.257-2.815 2.91 0 1.706 1.075 2.902 2.815 2.902 1.247 0 2.153-.555 2.579-1.858h-1.332c-.096.343-.587.715-1.195.715-.841 0-1.311-.437-1.354-1.397h3.977zm-3.977-.959c.02-.426.3-1.172 1.259-1.172.735 0 1.066.404 1.204 1.172h-2.463zM157.692 34.383h1.44v.768h.032c.384-.618 1.045-.916 1.684-.916 1.609 0 2.015.906 2.015 2.27v3.392h-1.515v-3.115c0-.906-.265-1.354-.968-1.354-.822 0-1.174.459-1.174 1.579v2.89h-1.514v-5.514M167.532 36.325c-.095-.619-.49-.95-1.119-.95-.97 0-1.29.98-1.29 1.791 0 .79.31 1.738 1.258 1.738.704 0 1.109-.447 1.205-1.12h1.461c-.192 1.462-1.205 2.262-2.655 2.262-1.663 0-2.782-1.174-2.782-2.826 0-1.716 1.022-2.985 2.814-2.985 1.3 0 2.496.682 2.59 2.09h-1.482M172.427 40.589c-.33.884-.854 1.248-1.898 1.248-.31 0-.618-.021-.928-.053v-1.248c.288.022.586.065.885.053.521-.053.694-.597.521-1.034l-1.938-5.172h1.62l1.248 3.775h.021l1.204-3.775h1.569l-2.304 6.206" transform="translate(-150 -2845) translate(0 2446) translate(0 270) translate(150 129)"></path></g></g></g></g></g></svg>